HIERARCHY
ROOT Hips
{
     OFFSET 1.88212 96.90440 -13.34250
     CHANNELS 6 Xposition Yposition Zposition Zrotation Xrotation Yrotation
     JOINT Spine
     {
          OFFSET 0.00000 11.89050 0.00000
          CHANNELS 3 Zrotation Xrotation Yrotation
          JOINT Spine1
          {
               OFFSET -0.00000 25.65740 0.12766
               CHANNELS 3 Zrotation Xrotation Yrotation
               JOINT HEad
               {
                    OFFSET 0.00000 8.73416 0.01134
                    CHANNELS 3 Zrotation Xrotation Yrotation
                    End Site
                    {
                         OFFSET -0.29000 12.77420 2.51395
                    }
               }
               JOINT LeftShoulder1
               {
                    OFFSET 8.99000 -0.36225 -0.22000
                    CHANNELS 3 Zrotation Xrotation Yrotation
                    JOINT LeftArm
                    {
                         OFFSET 10.28270 -0.00338 0.32212
                         CHANNELS 3 Zrotation Xrotation Yrotation
                         JOINT LeftForeArm
                         {
                              OFFSET 32.76690 0.09914 -1.42434
                              CHANNELS 3 Zrotation Xrotation Yrotation
                              JOINT LeftHand
                              {
                                   OFFSET 27.56430 0.08536 1.02216
                                   CHANNELS 3 Zrotation Xrotation Yrotation
                                   End Site
                                   {
                                        OFFSET 16.74430 -0.60000 1.50291
                                   }
                              }
                         }
                    }
               }
               JOINT RightShoulder
               {
                    OFFSET -8.99000 -0.36225 -0.22000
                    CHANNELS 3 Zrotation Xrotation Yrotation
                    JOINT RightArm
                    {
                         OFFSET -10.28270 -0.00338 0.32212
                         CHANNELS 3 Zrotation Xrotation Yrotation
                         JOINT RightForeArm
                         {
                              OFFSET -32.89710 0.09914 -1.42434
                              CHANNELS 3 Zrotation Xrotation Yrotation
                              JOINT RightHand
                              {
                                   OFFSET -27.49210 0.08536 1.02216
                                   CHANNELS 3 Zrotation Xrotation Yrotation
                                   End Site
                                   {
                                        OFFSET -16.63120 -0.60000 1.50291
                                   }
                              }
                         }
                    }
               }
          }
     }
     JOINT LeftUpLeg
     {
          OFFSET 8.94580 -8.66707 0.10165
          CHANNELS 3 Zrotation Xrotation Yrotation
          JOINT LeftLeg
          {
               OFFSET 0.00000 -44.42270 1.37270
               CHANNELS 3 Zrotation Xrotation Yrotation
               JOINT LeftFoot
               {
                    OFFSET -0.25355 -42.09240 -1.46059
                    CHANNELS 3 Zrotation Xrotation Yrotation
                    JOINT LeftToes
                    {
                         OFFSET -0.04000 -4.41509 8.49910
                         CHANNELS 3 Zrotation Xrotation Yrotation
                         End Site
                         {
                              OFFSET 0.08000 -0.04745 9.77979
                         }
                    }
               }
          }
     }
     JOINT RightUpLeg
     {
          OFFSET -8.94580 -8.66707 0.10165
          CHANNELS 3 Zrotation Xrotation Yrotation
          JOINT RightLeg
          {
               OFFSET 0.00000 -44.42270 1.37270
               CHANNELS 3 Zrotation Xrotation Yrotation
               JOINT RightFoot
               {
                    OFFSET 0.25355 -42.09240 -1.46059
                    CHANNELS 3 Zrotation Xrotation Yrotation
                    JOINT RightToes
                    {
                         OFFSET 0.04000 -4.41509 8.49910
                         CHANNELS 3 Zrotation Xrotation Yrotation
                         End Site
                         {
                              OFFSET -0.08000 -0.13745 9.77979
                         }
                    }
               }
          }
     }
}
MOTION
Frames: 17
Frame Time: 0.01667
32.54062 92.59705 18.37992 7.76513 21.06636 -174.36389 3.92594 18.24017 -4.95387 -0.04208 0.03609 0.05055 12.90349 4.68582 -21.54494 -1.09026 9.75271 7.69994 -57.25438 -13.17605 -102.18385 -12.80218 21.15012 -85.15759 20.73958 7.24319 -2.52669 -4.56173 12.55417 23.66989 98.83537 -37.03994 95.14961 -54.66409 19.73473 103.31547 58.99709 2.68752 -36.59867 15.17850 4.52177 -27.65587 -28.52457 -5.90828 72.42873 8.21580 0.00055 -0.00536 1.99688 -19.87620 -63.83872 10.38310 23.80547 -18.47399 6.46240 34.83991 -17.24762 -19.53898 -0.21586 -0.07774 0.57802 3.90256 21.70001 
33.24920 93.35789 18.55308 9.33616 25.57288 -168.39117 5.80726 24.10060 -6.21253 -0.03977 0.03382 0.04204 16.08113 1.75365 -25.98625 1.24193 7.91308 4.31886 -45.42929 -7.58477 -103.19607 -6.75305 10.59123 -85.42330 19.29713 7.30711 -1.95657 -0.21325 11.15439 18.10257 84.80621 -35.83323 82.70930 -57.64655 18.97440 90.99701 62.99611 2.60557 -37.17485 19.05698 6.14830 -32.89889 -29.18803 -5.36052 72.59621 8.93991 -0.01353 -0.02079 0.64570 -18.70793 -64.92170 14.95364 21.20410 -27.81677 2.22709 39.20611 -4.47668 -15.14103 -0.37046 -0.11143 11.89365 -4.18273 27.72633 
34.11777 94.23837 18.80826 10.44654 31.00286 -161.40016 8.75640 30.29000 -7.84378 -0.03966 0.02971 0.03293 19.53629 -1.48448 -30.80013 4.16467 5.95354 0.10103 -33.55375 -1.82120 -105.22845 -0.18549 -0.21609 -84.46311 17.64267 7.47426 -1.42165 4.62281 9.40873 12.31398 71.02547 -32.31818 70.57664 -58.61805 18.85699 77.24158 65.00688 3.57417 -37.16637 23.47304 7.28858 -38.40207 -29.86794 -4.12046 73.93908 9.62298 -0.02580 -0.01670 -1.25629 -17.82553 -67.64530 18.27722 17.54115 -37.83837 -3.44460 44.52842 10.56345 -9.34721 -0.56736 -0.12378 3.35156 3.31647 11.10934 
35.12022 95.16135 19.08561 10.85378 35.88564 -155.11176 12.00858 34.90380 -9.17378 0.02150 -0.01903 -0.05116 22.36523 -3.98688 -35.04512 6.38895 4.58910 -3.70519 -25.17258 1.55333 -107.34148 3.70355 -7.81115 -83.24506 15.93361 7.72655 -1.36439 8.88904 8.02998 7.55449 58.60170 -26.50184 59.70577 -57.21453 19.03868 62.38371 48.86186 7.88571 -27.58822 27.48483 7.51157 -41.92561 -30.45142 -2.11442 76.14529 10.12566 -0.02575 -0.01222 -3.71762 -13.82286 -56.61108 18.84401 12.69607 -46.20367 -11.18231 49.55441 25.72602 -7.74036 -0.14705 -0.10301 6.45196 0.74619 4.96940 
36.19159 96.06702 19.34257 10.75374 40.19827 -149.41858 15.21019 38.10656 -10.23468 0.02387 -0.01422 -0.05197 24.80812 -5.90083 -38.87496 8.11377 3.73664 -7.09357 -19.23298 3.75520 -109.21010 5.96072 -12.80033 -82.19408 14.45463 8.07270 -1.43362 12.82531 6.91936 3.61872 48.15340 -18.68672 50.67559 -53.17771 18.53362 46.84675 62.34418 4.91990 -31.91887 31.02610 7.17216 -43.59616 -30.74625 0.46909 78.93495 10.51660 -0.02317 -0.00925 -5.68869 -15.43560 -70.52248 16.91468 7.24710 -53.25259 -20.99862 53.36673 40.62189 -3.01504 -0.27303 -0.18700 4.65797 4.06598 -3.00724 
37.25272 96.90710 19.54893 10.32841 43.95571 -144.26602 18.14020 40.12336 -11.01846 0.02391 -0.00482 -0.04684 26.90609 -7.22100 -42.25322 1.08758 3.39269 -1.50316 -6.07134 7.37636 -118.42591 6.79323 -15.80735 -81.29934 13.31162 8.37473 -1.78634 16.69438 6.14775 0.53705 39.80673 -9.09576 43.20293 -47.05800 16.07984 31.60790 43.63762 9.59048 -17.42002 34.15269 6.59642 -43.56758 -30.54811 3.21853 82.02892 11.01319 -0.03304 -0.00657 -9.10464 -15.46920 -58.55396 12.77819 1.59491 -59.34136 -31.92275 55.95093 54.39737 0.58521 -0.13551 -0.14845 4.79909 5.28836 -6.55473 
38.23732 97.61050 19.69526 9.73220 47.20463 -139.63205 20.63004 41.13434 -11.46767 0.02032 -0.00208 -0.04570 28.77858 -7.96219 -45.23455 3.46955 4.05369 -4.89909 -4.63311 7.96802 -118.50181 6.96645 -17.16292 -80.94334 12.50646 8.62705 -1.94257 26.88316 6.88595 6.94130 27.66479 -8.49842 30.66022 -38.80516 14.51672 19.49871 54.53141 0.54938 -27.65060 36.85878 6.00674 -43.10465 -29.84383 5.74787 84.12222 11.29949 -0.01281 0.00750 -10.33281 -15.83661 -69.58185 6.68320 -3.90065 -64.75789 -42.95340 57.55689 66.76598 4.13227 -0.05560 -0.16138 4.13812 8.79019 -9.37995 
39.10723 98.08972 19.76133 9.07417 49.99747 -135.50146 22.71611 41.33997 -11.60434 0.02705 0.00763 -0.03613 30.42546 -8.24987 -47.88669 5.87947 4.95585 -7.36301 -7.29929 10.58046 -115.67551 6.16671 -13.99742 -83.95399 12.10293 8.82325 -2.01809 30.50236 6.58261 3.73557 25.72929 -3.87217 28.19781 -29.16693 12.95209 9.56305 31.94361 7.60158 -18.01530 39.18912 5.44636 -42.27820 -28.70017 7.90229 85.35367 11.49292 -0.00453 0.00640 -12.27714 -14.92552 -72.62849 -1.12006 -8.88382 -69.67028 -53.77808 58.66438 76.78205 -5.96492 -0.01251 0.32456 0.54252 9.82993 -9.79260 
39.86128 98.31928 19.68282 8.41026 52.36570 -131.84532 24.38376 40.90090 -11.46324 0.02693 0.01691 -0.02983 31.90555 -8.15289 -50.24630 8.20633 6.07007 -9.30177 -12.66512 13.91786 -110.69613 5.21908 -7.99397 -88.63217 12.29176 9.05983 -1.94808 33.81224 6.41817 0.95442 28.24720 -3.04668 24.51035 -22.34799 12.49689 3.96421 29.75254 8.21718 -16.50243 41.19221 4.93457 -41.15755 -27.27924 9.62671 85.84657 11.62942 -0.00071 0.00514 -13.14030 -14.77510 -77.87343 -10.35043 -13.00437 -74.07065 -62.18375 59.43038 83.07072 -5.05909 0.09131 -0.11496 9.43557 16.14536 -6.81396 
40.53053 98.29736 19.31046 7.75293 54.32867 -128.60461 25.52952 39.93501 -11.09276 0.02685 0.02139 -0.02826 33.27600 -7.70188 -52.33071 10.12857 7.19697 -10.98648 -20.26190 16.57246 -104.09647 4.11830 -0.06208 -93.67216 13.09498 9.45998 -2.18976 36.84794 6.30201 -1.80018 29.82734 -3.14736 22.21017 -18.64396 12.17090 1.09179 16.15283 10.26620 -10.61904 42.95165 4.45730 -39.81200 -25.76125 11.01379 85.70056 11.62937 0.00420 0.00463 -14.01216 -14.42426 -80.74329 -20.50089 -15.97943 -77.71102 -67.99261 60.49861 86.40923 -11.10557 -0.22400 0.28164 0.61257 13.72584 -7.74046 
41.12608 98.14022 18.59964 7.11497 55.91696 -125.72894 26.02542 38.56748 -10.53794 0.02306 0.02288 -0.02894 34.63721 -6.92764 -54.12944 11.46241 8.29933 -12.55722 -25.25926 17.96980 -99.75465 3.58579 5.30256 -96.11808 14.25799 9.83532 -2.44428 39.38232 6.14113 -4.62182 30.94221 -3.62539 20.57208 -16.96470 12.07569 -0.25887 17.92238 9.58174 -11.11143 44.57281 3.99673 -38.30629 -24.28284 12.18540 85.00214 11.40830 0.01009 0.00476 -14.42809 -14.31033 -83.73093 -31.02236 -17.94113 -80.29469 -68.57343 62.19021 85.48873 -14.26872 -0.18538 0.20877 2.13836 10.21119 -0.93601 
41.64542 97.97498 17.60570 6.53362 57.18348 -123.20642 25.83243 36.91854 -9.84481 0.01937 0.02344 -0.02851 36.05927 -5.86859 -55.64233 12.27659 9.46148 -13.84198 -28.33625 18.67788 -96.82980 3.03792 8.71517 -97.19496 15.50881 10.06143 -2.65614 41.48024 6.02275 -7.31433 31.79025 -4.36872 19.15783 -16.44879 12.16926 -0.66108 12.32114 9.95056 -8.61656 46.14385 3.54432 -36.69176 -22.90487 13.21846 83.83997 10.94761 0.01425 0.00544 -14.78228 -14.16586 -85.75845 -41.43794 -19.18561 -81.64342 -63.25518 64.47137 80.41487 -18.45244 -0.24912 0.38112 3.17411 7.20094 -0.73992 
42.10604 97.95078 16.24164 6.03333 58.19548 -121.01087 24.95655 35.08256 -9.07027 0.01476 0.02305 -0.02689 36.42199 -4.44813 -55.93390 1.66679 7.19882 -10.40072 -24.60926 23.28690 -93.62173 -0.11138 14.66512 -96.92791 34.42257 17.44303 -0.34789 43.20510 5.87604 -9.63047 32.17088 -9.56550 17.06553 -15.29388 16.06726 1.15083 14.82226 9.18177 -8.79398 47.78494 3.11799 -35.02447 -21.64643 14.13681 82.27084 10.23790 0.01691 0.00680 -14.95932 -14.09599 -87.42174 -51.49597 -20.18385 -81.74421 -52.17166 66.53455 71.07935 -15.46482 0.09290 -0.22109 1.56433 5.88189 6.32660 
42.53059 98.11246 14.54965 5.62588 59.03345 -119.11702 23.42484 33.12681 -8.22573 0.01145 0.02174 -0.02388 35.80352 -2.77907 -55.33282 2.31951 8.91233 -10.83420 -32.63411 20.40982 -90.93564 -1.92107 17.57191 -95.83061 18.07216 8.42259 -2.01017 44.56855 5.81998 -11.50952 32.83932 -13.07047 15.24720 -18.49191 14.52893 2.40920 16.03317 13.04072 -7.47397 49.59694 2.74663 -33.36071 -20.49113 14.91366 80.35923 9.31094 0.01772 0.00886 -15.09465 -14.04050 -88.49883 -60.98856 -21.25783 -80.64422 -37.00030 67.11835 57.83237 -7.65110 0.09921 -0.82434 4.16497 6.01334 8.85592 
42.94838 98.34124 12.71319 5.31477 59.74734 -117.51720 21.36861 31.11828 -7.37258 0.01286 0.02330 -0.02109 34.23484 -0.87544 -54.01434 2.97014 10.58460 -11.00501 -37.26189 19.07793 -88.96933 -2.63053 19.90359 -95.17262 41.86559 17.07443 3.02437 46.08108 5.75575 -13.10599 33.36719 -15.34528 13.62260 -20.26579 13.72382 3.40444 20.55559 14.43904 -7.93847 51.55054 2.42068 -31.72966 -19.43835 15.51679 78.22123 8.26892 0.01592 0.01062 -15.11495 -14.04273 -89.18935 -69.63415 -22.55975 -78.38355 -21.56391 65.23364 43.37569 2.69238 -0.16210 -1.14712 4.10721 6.18886 8.93910 
43.39608 98.47482 10.85873 5.09402 60.33829 -116.21490 18.89815 29.10308 -6.55256 0.01615 0.02422 -0.01973 33.24034 1.15679 -52.62680 3.94546 12.23055 -10.89459 -39.98202 18.84091 -87.41569 -2.66234 21.77981 -94.84946 34.93018 5.74751 1.31554 37.18135 0.89666 -11.76232 41.71322 -12.42903 5.78994 -21.36565 13.24869 4.27969 19.82616 -2.74756 -7.77428 53.51676 2.09254 -30.13399 -18.54382 15.95623 76.00407 7.22988 0.01196 0.01084 -15.01336 -14.12356 -89.52382 -76.98782 -24.10719 -74.92350 -10.37092 60.83485 31.34422 14.02691 -0.43838 -1.15708 4.25145 5.63177 6.95226 
43.89103 98.41975 9.07127 4.97311 60.77142 -115.23868 16.11802 27.12227 -5.78225 0.02001 0.02834 -0.01502 32.71163 3.26722 -51.19508 5.42224 13.84960 -10.66613 -41.69144 18.87736 -86.11619 -2.75474 22.53967 -94.47314 36.10696 12.90445 4.11452 40.04267 2.50298 -13.25469 41.65972 -14.30213 5.56877 -21.68176 12.99021 4.77330 23.00924 12.85437 -8.34260 55.34344 1.70988 -28.55604 -17.89290 16.28919 73.84814 6.28062 0.00712 0.00934 -14.74540 -14.32108 -89.61207 -82.55334 -25.76171 -70.15833 -2.20794 56.98269 20.56208 21.03189 -0.35275 -0.53831 2.44159 1.32970 2.17933 
